<?xml version="1.0" encoding="UTF-8"?><svg id="_512x512" xmlns="http://www.w3.org/2000/svg" viewBox="0 0 500 500"><path d="M392.247,248.322c0-12.207,7.452-22.472,17.566-25.475v-61.415c0-14.023-11.368-25.391-25.391-25.391H115.577c-14.023,0-25.391,11.368-25.391,25.391v61.349c10.319,2.934,17.949,13.352,17.949,25.755s-7.63,22.821-17.949,25.755v61.321c0,14.023,11.368,25.391,25.391,25.391h268.846c14.023,0,25.391-11.368,25.391-25.391v-61.814c-10.114-3.003-17.566-13.268-17.566-25.475ZM364.642,315.823h-200.038l-29.245,13.893v-148.582h229.283v134.689Z" fill="#fff"/><rect x="197.379" y="224.626" width="26.624" height="47.392" rx="12.207" ry="12.207" transform="translate(421.381 496.644) rotate(-180)" fill="#fff"/><rect x="276.38" y="224.626" width="26.624" height="47.392" rx="12.207" ry="12.207" transform="translate(579.384 496.644) rotate(-180)" fill="#fff"/></svg>