<svg width="749" height="28" viewBox="0 0 749 28" fill="none" xmlns="http://www.w3.org/2000/svg">
<path d="M228.78 18.52V20H222.38V18.52H224.724V11.776C224.724 11.5093 224.732 11.2347 224.748 10.952L223.084 12.344C222.988 12.4187 222.892 12.4667 222.796 12.488C222.705 12.504 222.617 12.504 222.532 12.488C222.452 12.472 222.38 12.4453 222.316 12.408C222.252 12.3653 222.204 12.32 222.172 12.272L221.548 11.416L225.076 8.416H226.7V18.52H228.78ZM234.341 18.584C234.667 18.584 234.952 18.5387 235.197 18.448C235.443 18.352 235.648 18.2213 235.813 18.056C235.984 17.8907 236.112 17.6933 236.197 17.464C236.283 17.2347 236.325 16.9867 236.325 16.72C236.325 16.0853 236.149 15.6053 235.797 15.28C235.445 14.9547 234.96 14.792 234.341 14.792C233.723 14.792 233.237 14.9547 232.885 15.28C232.533 15.6053 232.357 16.0853 232.357 16.72C232.357 16.9867 232.4 17.2347 232.485 17.464C232.571 17.6933 232.696 17.8907 232.861 18.056C233.032 18.2213 233.24 18.352 233.485 18.448C233.731 18.5387 234.016 18.584 234.341 18.584ZM234.341 9.792C234.048 9.792 233.795 9.83733 233.581 9.928C233.368 10.0187 233.189 10.1413 233.045 10.296C232.907 10.4453 232.803 10.6187 232.733 10.816C232.669 11.0133 232.637 11.2213 232.637 11.44C232.637 11.6693 232.664 11.8933 232.717 12.112C232.776 12.3253 232.872 12.5173 233.005 12.688C233.139 12.8533 233.315 12.9867 233.533 13.088C233.752 13.1893 234.021 13.24 234.341 13.24C234.661 13.24 234.931 13.1893 235.149 13.088C235.368 12.9867 235.544 12.8533 235.677 12.688C235.811 12.5173 235.904 12.3253 235.957 12.112C236.016 11.8933 236.045 11.6693 236.045 11.44C236.045 11.2213 236.011 11.0133 235.941 10.816C235.872 10.6187 235.768 10.4453 235.629 10.296C235.491 10.1413 235.315 10.0187 235.101 9.928C234.888 9.83733 234.635 9.792 234.341 9.792ZM236.293 13.968C236.997 14.1973 237.517 14.5493 237.853 15.024C238.189 15.4933 238.357 16.0693 238.357 16.752C238.357 17.264 238.259 17.728 238.061 18.144C237.869 18.56 237.597 18.9147 237.245 19.208C236.893 19.5013 236.469 19.728 235.973 19.888C235.483 20.048 234.939 20.128 234.341 20.128C233.744 20.128 233.197 20.048 232.701 19.888C232.211 19.728 231.789 19.5013 231.437 19.208C231.085 18.9147 230.811 18.56 230.613 18.144C230.421 17.728 230.325 17.264 230.325 16.752C230.325 16.0693 230.493 15.4933 230.829 15.024C231.165 14.5493 231.685 14.1973 232.389 13.968C231.829 13.7333 231.408 13.4 231.125 12.968C230.848 12.536 230.709 12.016 230.709 11.408C230.709 10.9707 230.797 10.5627 230.973 10.184C231.155 9.80533 231.405 9.47733 231.725 9.2C232.045 8.91733 232.427 8.69867 232.869 8.544C233.317 8.384 233.808 8.304 234.341 8.304C234.875 8.304 235.363 8.384 235.805 8.544C236.253 8.69867 236.637 8.91733 236.957 9.2C237.277 9.47733 237.525 9.80533 237.701 10.184C237.883 10.5627 237.973 10.9707 237.973 11.408C237.973 12.016 237.832 12.536 237.549 12.968C237.272 13.4 236.853 13.7333 236.293 13.968ZM247.639 8.432V9.288C247.639 9.544 247.612 9.752 247.559 9.912C247.505 10.0667 247.452 10.1973 247.399 10.304L243.015 19.328C242.924 19.5147 242.796 19.6747 242.631 19.808C242.465 19.936 242.244 20 241.967 20H240.535L245.007 11.16C245.108 10.9787 245.207 10.8133 245.303 10.664C245.404 10.5093 245.516 10.3627 245.639 10.224H240.103C239.98 10.224 239.873 10.1787 239.783 10.088C239.692 9.99733 239.647 9.89067 239.647 9.768V8.432H247.639ZM260.798 10.2H257.31V20H255.158V10.2H251.67V8.432H260.798V10.2ZM263.63 11.664C264.238 11.664 264.79 11.7627 265.286 11.96C265.787 12.1573 266.214 12.4373 266.566 12.8C266.923 13.1627 267.198 13.6053 267.39 14.128C267.582 14.6507 267.678 15.2347 267.678 15.88C267.678 16.5307 267.582 17.1173 267.39 17.64C267.198 18.1627 266.923 18.608 266.566 18.976C266.214 19.344 265.787 19.6267 265.286 19.824C264.79 20.0213 264.238 20.12 263.63 20.12C263.017 20.12 262.459 20.0213 261.958 19.824C261.457 19.6267 261.027 19.344 260.67 18.976C260.318 18.608 260.043 18.1627 259.846 17.64C259.654 17.1173 259.558 16.5307 259.558 15.88C259.558 15.2347 259.654 14.6507 259.846 14.128C260.043 13.6053 260.318 13.1627 260.67 12.8C261.027 12.4373 261.457 12.1573 261.958 11.96C262.459 11.7627 263.017 11.664 263.63 11.664ZM263.63 18.6C264.313 18.6 264.817 18.3707 265.142 17.912C265.473 17.4533 265.638 16.7813 265.638 15.896C265.638 15.0107 265.473 14.336 265.142 13.872C264.817 13.408 264.313 13.176 263.63 13.176C262.937 13.176 262.422 13.4107 262.086 13.88C261.755 14.344 261.59 15.016 261.59 15.896C261.59 16.776 261.755 17.448 262.086 17.912C262.422 18.3707 262.937 18.6 263.63 18.6ZM271.685 20.128C270.97 20.128 270.421 19.928 270.037 19.528C269.658 19.1227 269.469 18.5653 269.469 17.856V13.272H268.629C268.522 13.272 268.432 13.2373 268.357 13.168C268.282 13.0987 268.245 12.9947 268.245 12.856V12.072L269.565 11.856L269.981 9.616C270.008 9.50933 270.058 9.42667 270.133 9.368C270.208 9.30933 270.304 9.28 270.421 9.28H271.445V11.864H273.637V13.272H271.445V17.72C271.445 17.976 271.506 18.176 271.629 18.32C271.757 18.464 271.93 18.536 272.149 18.536C272.272 18.536 272.373 18.5227 272.453 18.496C272.538 18.464 272.61 18.432 272.669 18.4C272.733 18.368 272.789 18.3387 272.837 18.312C272.885 18.28 272.933 18.264 272.981 18.264C273.04 18.264 273.088 18.28 273.125 18.312C273.162 18.3387 273.202 18.3813 273.245 18.44L273.837 19.4C273.549 19.64 273.218 19.8213 272.845 19.944C272.472 20.0667 272.085 20.128 271.685 20.128ZM279.158 16.496C278.588 16.5227 278.108 16.5733 277.718 16.648C277.329 16.7173 277.017 16.808 276.782 16.92C276.548 17.032 276.38 17.1627 276.278 17.312C276.177 17.4613 276.126 17.624 276.126 17.8C276.126 18.1467 276.228 18.3947 276.43 18.544C276.638 18.6933 276.908 18.768 277.238 18.768C277.644 18.768 277.993 18.696 278.286 18.552C278.585 18.4027 278.876 18.1787 279.158 17.88V16.496ZM274.63 12.936C275.574 12.072 276.71 11.64 278.038 11.64C278.518 11.64 278.948 11.72 279.326 11.88C279.705 12.0347 280.025 12.2533 280.286 12.536C280.548 12.8133 280.745 13.1467 280.878 13.536C281.017 13.9253 281.086 14.352 281.086 14.816V20H280.19C280.004 20 279.86 19.9733 279.758 19.92C279.657 19.8613 279.577 19.7467 279.518 19.576L279.342 18.984C279.134 19.1707 278.932 19.336 278.734 19.48C278.537 19.6187 278.332 19.736 278.118 19.832C277.905 19.928 277.676 20 277.43 20.048C277.19 20.1013 276.924 20.128 276.63 20.128C276.284 20.128 275.964 20.0827 275.67 19.992C275.377 19.896 275.124 19.7547 274.91 19.568C274.697 19.3813 274.532 19.1493 274.414 18.872C274.297 18.5947 274.238 18.272 274.238 17.904C274.238 17.696 274.273 17.4907 274.342 17.288C274.412 17.08 274.524 16.8827 274.678 16.696C274.838 16.5093 275.044 16.3333 275.294 16.168C275.545 16.0027 275.852 15.8587 276.214 15.736C276.582 15.6133 277.009 15.5147 277.494 15.44C277.98 15.36 278.534 15.312 279.158 15.296V14.816C279.158 14.2667 279.041 13.8613 278.806 13.6C278.572 13.3333 278.233 13.2 277.79 13.2C277.47 13.2 277.204 13.2373 276.99 13.312C276.782 13.3867 276.598 13.472 276.438 13.568C276.278 13.6587 276.132 13.7413 275.998 13.816C275.87 13.8907 275.726 13.928 275.566 13.928C275.428 13.928 275.31 13.8933 275.214 13.824C275.118 13.7493 275.041 13.664 274.982 13.568L274.63 12.936ZM284.867 8.112V20H282.891V8.112H284.867Z" fill="#746F6D"/>
<path d="M303.167 17.334H307.167V13.334" stroke="#746F6D" stroke-width="1.33333" stroke-linecap="round" stroke-linejoin="round"/>
<path d="M307.167 17.3327L301.5 11.666L298.167 14.9993L293.833 10.666" stroke="#746F6D" stroke-width="1.33333" stroke-linecap="round" stroke-linejoin="round"/>
<path d="M341.78 18.52V20H335.38V18.52H337.724V11.776C337.724 11.5093 337.732 11.2347 337.748 10.952L336.084 12.344C335.988 12.4187 335.892 12.4667 335.796 12.488C335.705 12.504 335.617 12.504 335.532 12.488C335.452 12.472 335.38 12.4453 335.316 12.408C335.252 12.3653 335.204 12.32 335.172 12.272L334.548 11.416L338.076 8.416H339.7V18.52H341.78ZM350.549 18.16C350.763 18.16 350.931 18.2213 351.053 18.344C351.181 18.4613 351.245 18.6187 351.245 18.816V20H343.309V19.344C343.309 19.2107 343.336 19.072 343.389 18.928C343.448 18.7787 343.539 18.6453 343.661 18.528L347.173 15.008C347.467 14.7093 347.728 14.424 347.957 14.152C348.192 13.88 348.387 13.6107 348.541 13.344C348.696 13.0773 348.813 12.808 348.893 12.536C348.979 12.2587 349.021 11.968 349.021 11.664C349.021 11.3867 348.981 11.144 348.901 10.936C348.821 10.7227 348.707 10.544 348.557 10.4C348.413 10.256 348.237 10.1493 348.029 10.08C347.827 10.0053 347.597 9.968 347.341 9.968C347.107 9.968 346.888 10.0027 346.685 10.072C346.488 10.136 346.312 10.2293 346.157 10.352C346.003 10.4693 345.872 10.608 345.765 10.768C345.659 10.928 345.579 11.104 345.525 11.296C345.435 11.5413 345.317 11.704 345.173 11.784C345.029 11.864 344.821 11.8827 344.549 11.84L343.509 11.656C343.589 11.1013 343.744 10.616 343.973 10.2C344.203 9.77867 344.488 9.42933 344.829 9.152C345.176 8.86933 345.571 8.65867 346.013 8.52C346.461 8.376 346.941 8.304 347.453 8.304C347.987 8.304 348.475 8.384 348.917 8.544C349.36 8.69867 349.739 8.92 350.053 9.208C350.368 9.496 350.613 9.84267 350.789 10.248C350.965 10.6533 351.053 11.104 351.053 11.6C351.053 12.0267 350.989 12.4213 350.861 12.784C350.739 13.1467 350.571 13.4933 350.357 13.824C350.149 14.1547 349.904 14.4747 349.621 14.784C349.339 15.0933 349.043 15.408 348.733 15.728L346.125 18.392C346.376 18.3173 346.624 18.2613 346.869 18.224C347.12 18.1813 347.357 18.16 347.581 18.16H350.549ZM360.497 13.936C360.902 13.936 361.254 13.8853 361.553 13.784C361.857 13.6827 362.105 13.544 362.297 13.368C362.494 13.1867 362.641 12.9733 362.737 12.728C362.833 12.4827 362.881 12.2133 362.881 11.92C362.881 11.3333 362.686 10.8827 362.297 10.568C361.913 10.2533 361.324 10.096 360.529 10.096H359.153V13.936H360.497ZM366.033 20H364.089C363.721 20 363.454 19.856 363.289 19.568L360.857 15.864C360.766 15.7253 360.665 15.6267 360.553 15.568C360.446 15.5093 360.286 15.48 360.073 15.48H359.153V20H357.001V8.432H360.529C361.313 8.432 361.985 8.51467 362.545 8.68C363.11 8.84 363.572 9.06667 363.929 9.36C364.292 9.65333 364.558 10.0053 364.729 10.416C364.9 10.8213 364.985 11.2693 364.985 11.76C364.985 12.1493 364.926 12.5173 364.809 12.864C364.697 13.2107 364.532 13.5253 364.313 13.808C364.1 14.0907 363.833 14.3387 363.513 14.552C363.198 14.7653 362.838 14.9333 362.433 15.056C362.572 15.136 362.7 15.232 362.817 15.344C362.934 15.4507 363.041 15.5787 363.137 15.728L366.033 20ZM371.647 14.952C371.647 14.696 371.61 14.456 371.535 14.232C371.466 14.0027 371.359 13.8027 371.215 13.632C371.071 13.4613 370.887 13.328 370.663 13.232C370.444 13.1307 370.188 13.08 369.895 13.08C369.324 13.08 368.874 13.2427 368.543 13.568C368.218 13.8933 368.01 14.3547 367.919 14.952H371.647ZM367.879 16.144C367.911 16.5653 367.986 16.9307 368.103 17.24C368.22 17.544 368.375 17.7973 368.567 18C368.759 18.1973 368.986 18.3467 369.247 18.448C369.514 18.544 369.807 18.592 370.127 18.592C370.447 18.592 370.722 18.5547 370.951 18.48C371.186 18.4053 371.388 18.3227 371.559 18.232C371.735 18.1413 371.887 18.0587 372.015 17.984C372.148 17.9093 372.276 17.872 372.399 17.872C372.564 17.872 372.687 17.9333 372.767 18.056L373.335 18.776C373.116 19.032 372.871 19.248 372.599 19.424C372.327 19.5947 372.042 19.7333 371.743 19.84C371.45 19.9413 371.148 20.0133 370.839 20.056C370.535 20.0987 370.239 20.12 369.951 20.12C369.38 20.12 368.85 20.0267 368.359 19.84C367.868 19.648 367.442 19.368 367.079 19C366.716 18.6267 366.431 18.168 366.223 17.624C366.015 17.0747 365.911 16.44 365.911 15.72C365.911 15.16 366.002 14.6347 366.183 14.144C366.364 13.648 366.623 13.2187 366.959 12.856C367.3 12.488 367.714 12.1973 368.199 11.984C368.69 11.7707 369.242 11.664 369.855 11.664C370.372 11.664 370.85 11.7467 371.287 11.912C371.724 12.0773 372.1 12.32 372.415 12.64C372.73 12.9547 372.975 13.344 373.151 13.808C373.332 14.2667 373.423 14.792 373.423 15.384C373.423 15.6827 373.391 15.8853 373.327 15.992C373.263 16.0933 373.14 16.144 372.959 16.144H367.879ZM379.834 13.392C379.781 13.4773 379.725 13.5387 379.666 13.576C379.607 13.608 379.533 13.624 379.442 13.624C379.346 13.624 379.242 13.5973 379.13 13.544C379.023 13.4907 378.898 13.432 378.754 13.368C378.61 13.2987 378.445 13.2373 378.258 13.184C378.077 13.1307 377.861 13.104 377.61 13.104C377.221 13.104 376.914 13.1867 376.69 13.352C376.471 13.5173 376.362 13.7333 376.362 14C376.362 14.176 376.418 14.3253 376.53 14.448C376.647 14.5653 376.799 14.6693 376.986 14.76C377.178 14.8507 377.394 14.9333 377.634 15.008C377.874 15.0773 378.117 15.1547 378.362 15.24C378.613 15.3253 378.858 15.424 379.098 15.536C379.338 15.6427 379.551 15.7813 379.738 15.952C379.93 16.1173 380.082 16.3173 380.194 16.552C380.311 16.7867 380.37 17.0693 380.37 17.4C380.37 17.7947 380.298 18.16 380.154 18.496C380.015 18.8267 379.807 19.1147 379.53 19.36C379.253 19.6 378.909 19.7893 378.498 19.928C378.093 20.0613 377.623 20.128 377.09 20.128C376.807 20.128 376.53 20.1013 376.258 20.048C375.991 20 375.733 19.9307 375.482 19.84C375.237 19.7493 375.007 19.6427 374.794 19.52C374.586 19.3973 374.402 19.264 374.242 19.12L374.698 18.368C374.757 18.2773 374.826 18.208 374.906 18.16C374.986 18.112 375.087 18.088 375.21 18.088C375.333 18.088 375.447 18.1227 375.554 18.192C375.666 18.2613 375.794 18.336 375.938 18.416C376.082 18.496 376.25 18.5707 376.442 18.64C376.639 18.7093 376.887 18.744 377.186 18.744C377.421 18.744 377.621 18.7173 377.786 18.664C377.957 18.6053 378.095 18.5307 378.202 18.44C378.314 18.3493 378.394 18.2453 378.442 18.128C378.495 18.0053 378.522 17.88 378.522 17.752C378.522 17.56 378.463 17.4027 378.346 17.28C378.234 17.1573 378.082 17.0507 377.89 16.96C377.703 16.8693 377.487 16.7893 377.242 16.72C377.002 16.6453 376.754 16.5653 376.498 16.48C376.247 16.3947 375.999 16.296 375.754 16.184C375.514 16.0667 375.298 15.92 375.106 15.744C374.919 15.568 374.767 15.352 374.65 15.096C374.538 14.84 374.482 14.5307 374.482 14.168C374.482 13.832 374.549 13.512 374.682 13.208C374.815 12.904 375.01 12.64 375.266 12.416C375.527 12.1867 375.85 12.0053 376.234 11.872C376.623 11.7333 377.071 11.664 377.578 11.664C378.143 11.664 378.658 11.7573 379.122 11.944C379.586 12.1307 379.973 12.376 380.282 12.68L379.834 13.392ZM385.409 11.664C386.017 11.664 386.569 11.7627 387.065 11.96C387.567 12.1573 387.993 12.4373 388.345 12.8C388.703 13.1627 388.977 13.6053 389.169 14.128C389.361 14.6507 389.457 15.2347 389.457 15.88C389.457 16.5307 389.361 17.1173 389.169 17.64C388.977 18.1627 388.703 18.608 388.345 18.976C387.993 19.344 387.567 19.6267 387.065 19.824C386.569 20.0213 386.017 20.12 385.409 20.12C384.796 20.12 384.239 20.0213 383.737 19.824C383.236 19.6267 382.807 19.344 382.449 18.976C382.097 18.608 381.823 18.1627 381.625 17.64C381.433 17.1173 381.337 16.5307 381.337 15.88C381.337 15.2347 381.433 14.6507 381.625 14.128C381.823 13.6053 382.097 13.1627 382.449 12.8C382.807 12.4373 383.236 12.1573 383.737 11.96C384.239 11.7627 384.796 11.664 385.409 11.664ZM385.409 18.6C386.092 18.6 386.596 18.3707 386.921 17.912C387.252 17.4533 387.417 16.7813 387.417 15.896C387.417 15.0107 387.252 14.336 386.921 13.872C386.596 13.408 386.092 13.176 385.409 13.176C384.716 13.176 384.201 13.4107 383.865 13.88C383.535 14.344 383.369 15.016 383.369 15.896C383.369 16.776 383.535 17.448 383.865 17.912C384.201 18.3707 384.716 18.6 385.409 18.6ZM392.885 8.112V20H390.909V8.112H392.885ZM402.174 11.792L398.918 20H397.126L393.87 11.792H395.502C395.651 11.792 395.774 11.8267 395.87 11.896C395.971 11.9653 396.038 12.0533 396.07 12.16L397.654 16.544C397.739 16.8 397.814 17.0507 397.878 17.296C397.942 17.5413 397.998 17.7867 398.046 18.032C398.099 17.7867 398.158 17.5413 398.222 17.296C398.286 17.0507 398.363 16.8 398.454 16.544L400.07 12.16C400.107 12.0533 400.174 11.9653 400.27 11.896C400.366 11.8267 400.48 11.792 400.614 11.792H402.174ZM408.185 14.952C408.185 14.696 408.147 14.456 408.073 14.232C408.003 14.0027 407.897 13.8027 407.753 13.632C407.609 13.4613 407.425 13.328 407.201 13.232C406.982 13.1307 406.726 13.08 406.433 13.08C405.862 13.08 405.411 13.2427 405.081 13.568C404.755 13.8933 404.547 14.3547 404.457 14.952H408.185ZM404.417 16.144C404.449 16.5653 404.523 16.9307 404.641 17.24C404.758 17.544 404.913 17.7973 405.105 18C405.297 18.1973 405.523 18.3467 405.785 18.448C406.051 18.544 406.345 18.592 406.665 18.592C406.985 18.592 407.259 18.5547 407.489 18.48C407.723 18.4053 407.926 18.3227 408.097 18.232C408.273 18.1413 408.425 18.0587 408.553 17.984C408.686 17.9093 408.814 17.872 408.937 17.872C409.102 17.872 409.225 17.9333 409.305 18.056L409.873 18.776C409.654 19.032 409.409 19.248 409.137 19.424C408.865 19.5947 408.579 19.7333 408.281 19.84C407.987 19.9413 407.686 20.0133 407.377 20.056C407.073 20.0987 406.777 20.12 406.489 20.12C405.918 20.12 405.387 20.0267 404.897 19.84C404.406 19.648 403.979 19.368 403.617 19C403.254 18.6267 402.969 18.168 402.761 17.624C402.553 17.0747 402.449 16.44 402.449 15.72C402.449 15.16 402.539 14.6347 402.721 14.144C402.902 13.648 403.161 13.2187 403.497 12.856C403.838 12.488 404.251 12.1973 404.737 11.984C405.227 11.7707 405.779 11.664 406.393 11.664C406.91 11.664 407.387 11.7467 407.825 11.912C408.262 12.0773 408.638 12.32 408.953 12.64C409.267 12.9547 409.513 13.344 409.689 13.808C409.87 14.2667 409.961 14.792 409.961 15.384C409.961 15.6827 409.929 15.8853 409.865 15.992C409.801 16.0933 409.678 16.144 409.497 16.144H404.417ZM416.515 13.888C416.291 13.616 416.046 13.424 415.779 13.312C415.518 13.2 415.235 13.144 414.931 13.144C414.633 13.144 414.363 13.2 414.123 13.312C413.883 13.424 413.678 13.5947 413.507 13.824C413.337 14.048 413.206 14.336 413.115 14.688C413.025 15.0347 412.979 15.4453 412.979 15.92C412.979 16.4 413.017 16.808 413.091 17.144C413.171 17.4747 413.283 17.7467 413.427 17.96C413.571 18.168 413.747 18.32 413.955 18.416C414.163 18.5067 414.395 18.552 414.651 18.552C415.062 18.552 415.411 18.4667 415.699 18.296C415.987 18.1253 416.259 17.8827 416.515 17.568V13.888ZM418.491 8.112V20H417.283C417.022 20 416.857 19.88 416.787 19.64L416.619 18.848C416.289 19.2267 415.907 19.5333 415.475 19.768C415.049 20.0027 414.55 20.12 413.979 20.12C413.531 20.12 413.121 20.0267 412.747 19.84C412.374 19.6533 412.051 19.384 411.779 19.032C411.513 18.6747 411.305 18.2347 411.155 17.712C411.011 17.1893 410.939 16.592 410.939 15.92C410.939 15.312 411.022 14.7467 411.187 14.224C411.353 13.7013 411.59 13.248 411.899 12.864C412.209 12.48 412.579 12.1813 413.011 11.968C413.443 11.7493 413.929 11.64 414.467 11.64C414.926 11.64 415.318 11.712 415.643 11.856C415.969 12 416.259 12.1947 416.515 12.44V8.112H418.491ZM432.08 10.2H428.592V20H426.44V10.2H422.952V8.432H432.08V10.2ZM434.912 11.664C435.52 11.664 436.072 11.7627 436.568 11.96C437.069 12.1573 437.496 12.4373 437.848 12.8C438.205 13.1627 438.48 13.6053 438.672 14.128C438.864 14.6507 438.96 15.2347 438.96 15.88C438.96 16.5307 438.864 17.1173 438.672 17.64C438.48 18.1627 438.205 18.608 437.848 18.976C437.496 19.344 437.069 19.6267 436.568 19.824C436.072 20.0213 435.52 20.12 434.912 20.12C434.298 20.12 433.741 20.0213 433.24 19.824C432.738 19.6267 432.309 19.344 431.952 18.976C431.6 18.608 431.325 18.1627 431.128 17.64C430.936 17.1173 430.84 16.5307 430.84 15.88C430.84 15.2347 430.936 14.6507 431.128 14.128C431.325 13.6053 431.6 13.1627 431.952 12.8C432.309 12.4373 432.738 12.1573 433.24 11.96C433.741 11.7627 434.298 11.664 434.912 11.664ZM434.912 18.6C435.594 18.6 436.098 18.3707 436.424 17.912C436.754 17.4533 436.92 16.7813 436.92 15.896C436.92 15.0107 436.754 14.336 436.424 13.872C436.098 13.408 435.594 13.176 434.912 13.176C434.218 13.176 433.704 13.4107 433.368 13.88C433.037 14.344 432.872 15.016 432.872 15.896C432.872 16.776 433.037 17.448 433.368 17.912C433.704 18.3707 434.218 18.6 434.912 18.6ZM445.539 13.888C445.315 13.616 445.07 13.424 444.803 13.312C444.542 13.2 444.259 13.144 443.955 13.144C443.657 13.144 443.387 13.2 443.147 13.312C442.907 13.424 442.702 13.5947 442.531 13.824C442.361 14.048 442.23 14.336 442.139 14.688C442.049 15.0347 442.003 15.4453 442.003 15.92C442.003 16.4 442.041 16.808 442.115 17.144C442.195 17.4747 442.307 17.7467 442.451 17.96C442.595 18.168 442.771 18.32 442.979 18.416C443.187 18.5067 443.419 18.552 443.675 18.552C444.086 18.552 444.435 18.4667 444.723 18.296C445.011 18.1253 445.283 17.8827 445.539 17.568V13.888ZM447.515 8.112V20H446.307C446.046 20 445.881 19.88 445.811 19.64L445.643 18.848C445.313 19.2267 444.931 19.5333 444.499 19.768C444.073 20.0027 443.574 20.12 443.003 20.12C442.555 20.12 442.145 20.0267 441.771 19.84C441.398 19.6533 441.075 19.384 440.803 19.032C440.537 18.6747 440.329 18.2347 440.179 17.712C440.035 17.1893 439.963 16.592 439.963 15.92C439.963 15.312 440.046 14.7467 440.211 14.224C440.377 13.7013 440.614 13.248 440.923 12.864C441.233 12.48 441.603 12.1813 442.035 11.968C442.467 11.7493 442.953 11.64 443.491 11.64C443.95 11.64 444.342 11.712 444.667 11.856C444.993 12 445.283 12.1947 445.539 12.44V8.112H447.515ZM453.721 16.496C453.151 16.5227 452.671 16.5733 452.281 16.648C451.892 16.7173 451.58 16.808 451.345 16.92C451.111 17.032 450.943 17.1627 450.841 17.312C450.74 17.4613 450.689 17.624 450.689 17.8C450.689 18.1467 450.791 18.3947 450.993 18.544C451.201 18.6933 451.471 18.768 451.801 18.768C452.207 18.768 452.556 18.696 452.849 18.552C453.148 18.4027 453.439 18.1787 453.721 17.88V16.496ZM449.193 12.936C450.137 12.072 451.273 11.64 452.601 11.64C453.081 11.64 453.511 11.72 453.889 11.88C454.268 12.0347 454.588 12.2533 454.849 12.536C455.111 12.8133 455.308 13.1467 455.441 13.536C455.58 13.9253 455.649 14.352 455.649 14.816V20H454.753C454.567 20 454.423 19.9733 454.321 19.92C454.22 19.8613 454.14 19.7467 454.081 19.576L453.905 18.984C453.697 19.1707 453.495 19.336 453.297 19.48C453.1 19.6187 452.895 19.736 452.681 19.832C452.468 19.928 452.239 20 451.993 20.048C451.753 20.1013 451.487 20.128 451.193 20.128C450.847 20.128 450.527 20.0827 450.233 19.992C449.94 19.896 449.687 19.7547 449.473 19.568C449.26 19.3813 449.095 19.1493 448.977 18.872C448.86 18.5947 448.801 18.272 448.801 17.904C448.801 17.696 448.836 17.4907 448.905 17.288C448.975 17.08 449.087 16.8827 449.241 16.696C449.401 16.5093 449.607 16.3333 449.857 16.168C450.108 16.0027 450.415 15.8587 450.777 15.736C451.145 15.6133 451.572 15.5147 452.057 15.44C452.543 15.36 453.097 15.312 453.721 15.296V14.816C453.721 14.2667 453.604 13.8613 453.369 13.6C453.135 13.3333 452.796 13.2 452.353 13.2C452.033 13.2 451.767 13.2373 451.553 13.312C451.345 13.3867 451.161 13.472 451.001 13.568C450.841 13.6587 450.695 13.7413 450.561 13.816C450.433 13.8907 450.289 13.928 450.129 13.928C449.991 13.928 449.873 13.8933 449.777 13.824C449.681 13.7493 449.604 13.664 449.545 13.568L449.193 12.936ZM464.652 11.792L460.18 22.256C460.121 22.3947 460.044 22.4987 459.948 22.568C459.857 22.6427 459.716 22.68 459.524 22.68H458.052L459.588 19.384L456.268 11.792H458.004C458.159 11.792 458.279 11.8293 458.364 11.904C458.455 11.9787 458.521 12.064 458.564 12.16L460.308 16.416C460.367 16.56 460.415 16.704 460.452 16.848C460.495 16.992 460.535 17.1387 460.572 17.288C460.62 17.1387 460.668 16.992 460.716 16.848C460.764 16.6987 460.817 16.552 460.876 16.408L462.524 12.16C462.567 12.0533 462.636 11.9653 462.732 11.896C462.833 11.8267 462.945 11.792 463.068 11.792H464.652Z" fill="#746F6D"/>
</svg>
