<svg width="749" height="52" viewBox="0 0 749 52" fill="none" xmlns="http://www.w3.org/2000/svg">
<path d="M185.28 28.352V29.832H178.88V28.352H181.224V21.608C181.224 21.3414 181.232 21.0667 181.248 20.784L179.584 22.176C179.488 22.2507 179.392 22.2987 179.296 22.32C179.205 22.336 179.117 22.336 179.032 22.32C178.952 22.304 178.88 22.2774 178.816 22.24C178.752 22.1974 178.704 22.152 178.672 22.104L178.048 21.248L181.576 18.248H183.2V28.352H185.28ZM190.377 22.464L189.977 22.96C190.201 22.848 190.441 22.7627 190.697 22.704C190.959 22.64 191.239 22.608 191.537 22.608C191.975 22.608 192.399 22.68 192.809 22.824C193.225 22.968 193.591 23.1867 193.905 23.48C194.22 23.768 194.473 24.128 194.665 24.56C194.857 24.992 194.953 25.496 194.953 26.072C194.953 26.6107 194.855 27.1174 194.657 27.592C194.46 28.0614 194.183 28.472 193.825 28.824C193.468 29.176 193.036 29.4534 192.529 29.656C192.028 29.8587 191.473 29.96 190.865 29.96C190.247 29.96 189.692 29.8614 189.201 29.664C188.711 29.4667 188.292 29.192 187.945 28.84C187.599 28.4827 187.332 28.056 187.145 27.56C186.964 27.0587 186.873 26.504 186.873 25.896C186.873 25.352 186.983 24.7947 187.201 24.224C187.425 23.648 187.769 23.0507 188.233 22.432L190.993 18.728C191.089 18.6 191.228 18.4907 191.409 18.4C191.596 18.3094 191.809 18.264 192.049 18.264H193.809L190.377 22.464ZM190.825 28.344C191.14 28.344 191.428 28.2907 191.689 28.184C191.956 28.0774 192.183 27.928 192.369 27.736C192.561 27.544 192.711 27.32 192.817 27.064C192.924 26.8027 192.977 26.52 192.977 26.216C192.977 25.8854 192.927 25.5894 192.825 25.328C192.724 25.0614 192.58 24.8374 192.393 24.656C192.207 24.4694 191.983 24.328 191.721 24.232C191.46 24.136 191.172 24.088 190.857 24.088C190.543 24.088 190.257 24.1414 190.001 24.248C189.745 24.3547 189.527 24.504 189.345 24.696C189.164 24.8827 189.023 25.1067 188.921 25.368C188.82 25.624 188.769 25.9014 188.769 26.2C188.769 26.52 188.812 26.8134 188.897 27.08C188.988 27.3414 189.119 27.5654 189.289 27.752C189.465 27.9387 189.681 28.0854 189.937 28.192C190.193 28.2934 190.489 28.344 190.825 28.344ZM204.139 18.264V19.12C204.139 19.376 204.112 19.584 204.059 19.744C204.005 19.8987 203.952 20.0294 203.899 20.136L199.515 29.16C199.424 29.3467 199.296 29.5067 199.131 29.64C198.965 29.768 198.744 29.832 198.467 29.832H197.035L201.507 20.992C201.608 20.8107 201.707 20.6454 201.803 20.496C201.904 20.3414 202.016 20.1947 202.139 20.056H196.603C196.48 20.056 196.373 20.0107 196.283 19.92C196.192 19.8294 196.147 19.7227 196.147 19.6V18.264H204.139ZM217.298 20.032H213.81V29.832H211.658V20.032H208.17V18.264H217.298V20.032ZM220.13 21.496C220.738 21.496 221.29 21.5947 221.786 21.792C222.287 21.9894 222.714 22.2694 223.066 22.632C223.423 22.9947 223.698 23.4374 223.89 23.96C224.082 24.4827 224.178 25.0667 224.178 25.712C224.178 26.3627 224.082 26.9494 223.89 27.472C223.698 27.9947 223.423 28.44 223.066 28.808C222.714 29.176 222.287 29.4587 221.786 29.656C221.29 29.8534 220.738 29.952 220.13 29.952C219.517 29.952 218.959 29.8534 218.458 29.656C217.957 29.4587 217.527 29.176 217.17 28.808C216.818 28.44 216.543 27.9947 216.346 27.472C216.154 26.9494 216.058 26.3627 216.058 25.712C216.058 25.0667 216.154 24.4827 216.346 23.96C216.543 23.4374 216.818 22.9947 217.17 22.632C217.527 22.2694 217.957 21.9894 218.458 21.792C218.959 21.5947 219.517 21.496 220.13 21.496ZM220.13 28.432C220.813 28.432 221.317 28.2027 221.642 27.744C221.973 27.2854 222.138 26.6134 222.138 25.728C222.138 24.8427 221.973 24.168 221.642 23.704C221.317 23.24 220.813 23.008 220.13 23.008C219.437 23.008 218.922 23.2427 218.586 23.712C218.255 24.176 218.09 24.848 218.09 25.728C218.09 26.608 218.255 27.28 218.586 27.744C218.922 28.2027 219.437 28.432 220.13 28.432ZM228.185 29.96C227.47 29.96 226.921 29.76 226.537 29.36C226.158 28.9547 225.969 28.3974 225.969 27.688V23.104H225.129C225.022 23.104 224.932 23.0694 224.857 23C224.782 22.9307 224.745 22.8267 224.745 22.688V21.904L226.065 21.688L226.481 19.448C226.508 19.3414 226.558 19.2587 226.633 19.2C226.708 19.1414 226.804 19.112 226.921 19.112H227.945V21.696H230.137V23.104H227.945V27.552C227.945 27.808 228.006 28.008 228.129 28.152C228.257 28.296 228.43 28.368 228.649 28.368C228.772 28.368 228.873 28.3547 228.953 28.328C229.038 28.296 229.11 28.264 229.169 28.232C229.233 28.2 229.289 28.1707 229.337 28.144C229.385 28.112 229.433 28.096 229.481 28.096C229.54 28.096 229.588 28.112 229.625 28.144C229.662 28.1707 229.702 28.2134 229.745 28.272L230.337 29.232C230.049 29.472 229.718 29.6534 229.345 29.776C228.972 29.8987 228.585 29.96 228.185 29.96ZM235.658 26.328C235.088 26.3547 234.608 26.4054 234.218 26.48C233.829 26.5494 233.517 26.64 233.282 26.752C233.048 26.864 232.88 26.9947 232.778 27.144C232.677 27.2934 232.626 27.456 232.626 27.632C232.626 27.9787 232.728 28.2267 232.93 28.376C233.138 28.5254 233.408 28.6 233.738 28.6C234.144 28.6 234.493 28.528 234.786 28.384C235.085 28.2347 235.376 28.0107 235.658 27.712V26.328ZM231.13 22.768C232.074 21.904 233.21 21.472 234.538 21.472C235.018 21.472 235.448 21.552 235.826 21.712C236.205 21.8667 236.525 22.0854 236.786 22.368C237.048 22.6454 237.245 22.9787 237.378 23.368C237.517 23.7574 237.586 24.184 237.586 24.648V29.832H236.69C236.504 29.832 236.36 29.8054 236.258 29.752C236.157 29.6934 236.077 29.5787 236.018 29.408L235.842 28.816C235.634 29.0027 235.432 29.168 235.234 29.312C235.037 29.4507 234.832 29.568 234.618 29.664C234.405 29.76 234.176 29.832 233.93 29.88C233.69 29.9334 233.424 29.96 233.13 29.96C232.784 29.96 232.464 29.9147 232.17 29.824C231.877 29.728 231.624 29.5867 231.41 29.4C231.197 29.2134 231.032 28.9814 230.914 28.704C230.797 28.4267 230.738 28.104 230.738 27.736C230.738 27.528 230.773 27.3227 230.842 27.12C230.912 26.912 231.024 26.7147 231.178 26.528C231.338 26.3414 231.544 26.1654 231.794 26C232.045 25.8347 232.352 25.6907 232.714 25.568C233.082 25.4454 233.509 25.3467 233.994 25.272C234.48 25.192 235.034 25.144 235.658 25.128V24.648C235.658 24.0987 235.541 23.6934 235.306 23.432C235.072 23.1654 234.733 23.032 234.29 23.032C233.97 23.032 233.704 23.0694 233.49 23.144C233.282 23.2187 233.098 23.304 232.938 23.4C232.778 23.4907 232.632 23.5734 232.498 23.648C232.37 23.7227 232.226 23.76 232.066 23.76C231.928 23.76 231.81 23.7254 231.714 23.656C231.618 23.5814 231.541 23.496 231.482 23.4L231.13 22.768ZM241.367 17.944V29.832H239.391V17.944H241.367Z" fill="#746F6D"/>
<path d="M259.667 27.166H263.667V23.166" stroke="#746F6D" stroke-width="1.33333" stroke-linecap="round" stroke-linejoin="round"/>
<path d="M263.667 27.1647L258 21.498L254.667 24.8314L250.333 20.498" stroke="#746F6D" stroke-width="1.33333" stroke-linecap="round" stroke-linejoin="round"/>
<g filter="url(#filter0_d_2450_241382)">
<path d="M291.296 20.316C291.416 19.484 291.648 18.756 291.992 18.132C292.336 17.5 292.764 16.976 293.276 16.56C293.796 16.136 294.388 15.82 295.052 15.612C295.724 15.396 296.444 15.288 297.212 15.288C298.012 15.288 298.732 15.404 299.372 15.636C300.02 15.86 300.572 16.176 301.028 16.584C301.484 16.984 301.832 17.456 302.072 18C302.32 18.544 302.444 19.132 302.444 19.764C302.444 20.316 302.38 20.804 302.252 21.228C302.132 21.644 301.956 22.008 301.724 22.32C301.492 22.632 301.204 22.896 300.86 23.112C300.516 23.328 300.128 23.508 299.696 23.652C300.736 23.98 301.512 24.48 302.024 25.152C302.536 25.824 302.792 26.668 302.792 27.684C302.792 28.548 302.632 29.312 302.312 29.976C301.992 30.64 301.56 31.2 301.016 31.656C300.472 32.104 299.84 32.444 299.12 32.676C298.408 32.908 297.652 33.024 296.852 33.024C295.98 33.024 295.22 32.924 294.572 32.724C293.924 32.524 293.36 32.228 292.88 31.836C292.4 31.444 291.992 30.964 291.656 30.396C291.32 29.828 291.032 29.172 290.792 28.428L292.1 27.888C292.444 27.744 292.764 27.708 293.06 27.78C293.364 27.844 293.584 28.004 293.72 28.26C293.864 28.54 294.02 28.816 294.188 29.088C294.364 29.36 294.572 29.604 294.812 29.82C295.052 30.028 295.332 30.2 295.652 30.336C295.98 30.464 296.368 30.528 296.816 30.528C297.32 30.528 297.76 30.448 298.136 30.288C298.512 30.12 298.824 29.904 299.072 29.64C299.328 29.376 299.516 29.084 299.636 28.764C299.764 28.436 299.828 28.108 299.828 27.78C299.828 27.364 299.784 26.988 299.696 26.652C299.608 26.308 299.424 26.016 299.144 25.776C298.864 25.536 298.46 25.348 297.932 25.212C297.412 25.076 296.712 25.008 295.832 25.008V22.896C296.56 22.888 297.164 22.82 297.644 22.692C298.124 22.564 298.504 22.388 298.784 22.164C299.072 21.932 299.272 21.656 299.384 21.336C299.496 21.016 299.552 20.664 299.552 20.28C299.552 19.464 299.324 18.844 298.868 18.42C298.412 17.996 297.804 17.784 297.044 17.784C296.692 17.784 296.368 17.836 296.072 17.94C295.776 18.036 295.508 18.176 295.268 18.36C295.036 18.536 294.84 18.744 294.68 18.984C294.52 19.224 294.4 19.488 294.32 19.776C294.184 20.144 294.004 20.388 293.78 20.508C293.564 20.628 293.256 20.656 292.856 20.592L291.296 20.316ZM315.574 30.072C315.894 30.072 316.146 30.164 316.33 30.348C316.522 30.524 316.618 30.76 316.618 31.056V32.832H304.714V31.848C304.714 31.648 304.754 31.44 304.834 31.224C304.922 31 305.058 30.8 305.242 30.624L310.51 25.344C310.95 24.896 311.342 24.468 311.686 24.06C312.038 23.652 312.33 23.248 312.562 22.848C312.794 22.448 312.97 22.044 313.09 21.636C313.218 21.22 313.282 20.784 313.282 20.328C313.282 19.912 313.222 19.548 313.102 19.236C312.982 18.916 312.81 18.648 312.586 18.432C312.37 18.216 312.106 18.056 311.794 17.952C311.49 17.84 311.146 17.784 310.762 17.784C310.41 17.784 310.082 17.836 309.778 17.94C309.482 18.036 309.218 18.176 308.986 18.36C308.754 18.536 308.558 18.744 308.398 18.984C308.238 19.224 308.118 19.488 308.038 19.776C307.902 20.144 307.726 20.388 307.51 20.508C307.294 20.628 306.982 20.656 306.574 20.592L305.014 20.316C305.134 19.484 305.366 18.756 305.71 18.132C306.054 17.5 306.482 16.976 306.994 16.56C307.514 16.136 308.106 15.82 308.77 15.612C309.442 15.396 310.162 15.288 310.93 15.288C311.73 15.288 312.462 15.408 313.126 15.648C313.79 15.88 314.358 16.212 314.83 16.644C315.302 17.076 315.67 17.596 315.934 18.204C316.198 18.812 316.33 19.488 316.33 20.232C316.33 20.872 316.234 21.464 316.042 22.008C315.858 22.552 315.606 23.072 315.286 23.568C314.974 24.064 314.606 24.544 314.182 25.008C313.758 25.472 313.314 25.944 312.85 26.424L308.938 30.42C309.314 30.308 309.686 30.224 310.054 30.168C310.43 30.104 310.786 30.072 311.122 30.072H315.574ZM330.496 23.736C331.104 23.736 331.632 23.66 332.08 23.508C332.536 23.356 332.908 23.148 333.196 22.884C333.492 22.612 333.712 22.292 333.856 21.924C334 21.556 334.072 21.152 334.072 20.712C334.072 19.832 333.78 19.156 333.196 18.684C332.62 18.212 331.736 17.976 330.544 17.976H328.48V23.736H330.496ZM338.8 32.832H335.884C335.332 32.832 334.932 32.616 334.684 32.184L331.036 26.628C330.9 26.42 330.748 26.272 330.58 26.184C330.42 26.096 330.18 26.052 329.86 26.052H328.48V32.832H325.252V15.48H330.544C331.72 15.48 332.728 15.604 333.568 15.852C334.416 16.092 335.108 16.432 335.644 16.872C336.188 17.312 336.588 17.84 336.844 18.456C337.1 19.064 337.228 19.736 337.228 20.472C337.228 21.056 337.14 21.608 336.964 22.128C336.796 22.648 336.548 23.12 336.22 23.544C335.9 23.968 335.5 24.34 335.02 24.66C334.548 24.98 334.008 25.232 333.4 25.416C333.608 25.536 333.8 25.68 333.976 25.848C334.152 26.008 334.312 26.2 334.456 26.424L338.8 32.832ZM347.221 25.26C347.221 24.876 347.165 24.516 347.053 24.18C346.949 23.836 346.789 23.536 346.573 23.28C346.357 23.024 346.081 22.824 345.745 22.68C345.417 22.528 345.033 22.452 344.593 22.452C343.737 22.452 343.061 22.696 342.565 23.184C342.077 23.672 341.765 24.364 341.629 25.26H347.221ZM341.569 27.048C341.617 27.68 341.729 28.228 341.905 28.692C342.081 29.148 342.313 29.528 342.601 29.832C342.889 30.128 343.229 30.352 343.621 30.504C344.021 30.648 344.461 30.72 344.941 30.72C345.421 30.72 345.833 30.664 346.177 30.552C346.529 30.44 346.833 30.316 347.089 30.18C347.353 30.044 347.581 29.92 347.773 29.808C347.973 29.696 348.165 29.64 348.349 29.64C348.597 29.64 348.781 29.732 348.901 29.916L349.753 30.996C349.425 31.38 349.057 31.704 348.649 31.968C348.241 32.224 347.813 32.432 347.365 32.592C346.925 32.744 346.473 32.852 346.009 32.916C345.553 32.98 345.109 33.012 344.677 33.012C343.821 33.012 343.025 32.872 342.289 32.592C341.553 32.304 340.913 31.884 340.369 31.332C339.825 30.772 339.397 30.084 339.085 29.268C338.773 28.444 338.617 27.492 338.617 26.412C338.617 25.572 338.753 24.784 339.025 24.048C339.297 23.304 339.685 22.66 340.189 22.116C340.701 21.564 341.321 21.128 342.049 20.808C342.785 20.488 343.613 20.328 344.533 20.328C345.309 20.328 346.025 20.452 346.681 20.7C347.337 20.948 347.901 21.312 348.373 21.792C348.845 22.264 349.213 22.848 349.477 23.544C349.749 24.232 349.885 25.02 349.885 25.908C349.885 26.356 349.837 26.66 349.741 26.82C349.645 26.972 349.461 27.048 349.189 27.048H341.569ZM359.501 22.92C359.421 23.048 359.337 23.14 359.249 23.196C359.161 23.244 359.049 23.268 358.913 23.268C358.769 23.268 358.613 23.228 358.445 23.148C358.285 23.068 358.097 22.98 357.881 22.884C357.665 22.78 357.417 22.688 357.137 22.608C356.865 22.528 356.541 22.488 356.165 22.488C355.581 22.488 355.121 22.612 354.785 22.86C354.457 23.108 354.293 23.432 354.293 23.832C354.293 24.096 354.377 24.32 354.545 24.504C354.721 24.68 354.949 24.836 355.229 24.972C355.517 25.108 355.841 25.232 356.201 25.344C356.561 25.448 356.925 25.564 357.293 25.692C357.669 25.82 358.037 25.968 358.397 26.136C358.757 26.296 359.077 26.504 359.357 26.76C359.645 27.008 359.873 27.308 360.041 27.66C360.217 28.012 360.305 28.436 360.305 28.932C360.305 29.524 360.197 30.072 359.981 30.576C359.773 31.072 359.461 31.504 359.045 31.872C358.629 32.232 358.113 32.516 357.497 32.724C356.889 32.924 356.185 33.024 355.385 33.024C354.961 33.024 354.545 32.984 354.137 32.904C353.737 32.832 353.349 32.728 352.973 32.592C352.605 32.456 352.261 32.296 351.941 32.112C351.629 31.928 351.353 31.728 351.113 31.512L351.797 30.384C351.885 30.248 351.989 30.144 352.109 30.072C352.229 30 352.381 29.964 352.565 29.964C352.749 29.964 352.921 30.016 353.081 30.12C353.249 30.224 353.441 30.336 353.657 30.456C353.873 30.576 354.125 30.688 354.413 30.792C354.709 30.896 355.081 30.948 355.529 30.948C355.881 30.948 356.181 30.908 356.429 30.828C356.685 30.74 356.893 30.628 357.053 30.492C357.221 30.356 357.341 30.2 357.413 30.024C357.493 29.84 357.533 29.652 357.533 29.46C357.533 29.172 357.445 28.936 357.269 28.752C357.101 28.568 356.873 28.408 356.585 28.272C356.305 28.136 355.981 28.016 355.613 27.912C355.253 27.8 354.881 27.68 354.497 27.552C354.121 27.424 353.749 27.276 353.381 27.108C353.021 26.932 352.697 26.712 352.409 26.448C352.129 26.184 351.901 25.86 351.725 25.476C351.557 25.092 351.473 24.628 351.473 24.084C351.473 23.58 351.573 23.1 351.773 22.644C351.973 22.188 352.265 21.792 352.649 21.456C353.041 21.112 353.525 20.84 354.101 20.64C354.685 20.432 355.357 20.328 356.117 20.328C356.965 20.328 357.737 20.468 358.433 20.748C359.129 21.028 359.709 21.396 360.173 21.852L359.501 22.92ZM367.864 20.328C368.776 20.328 369.604 20.476 370.348 20.772C371.1 21.068 371.74 21.488 372.268 22.032C372.804 22.576 373.216 23.24 373.504 24.024C373.792 24.808 373.936 25.684 373.936 26.652C373.936 27.628 373.792 28.508 373.504 29.292C373.216 30.076 372.804 30.744 372.268 31.296C371.74 31.848 371.1 32.272 370.348 32.568C369.604 32.864 368.776 33.012 367.864 33.012C366.944 33.012 366.108 32.864 365.356 32.568C364.604 32.272 363.96 31.848 363.424 31.296C362.896 30.744 362.484 30.076 362.188 29.292C361.9 28.508 361.756 27.628 361.756 26.652C361.756 25.684 361.9 24.808 362.188 24.024C362.484 23.24 362.896 22.576 363.424 22.032C363.96 21.488 364.604 21.068 365.356 20.772C366.108 20.476 366.944 20.328 367.864 20.328ZM367.864 30.732C368.888 30.732 369.644 30.388 370.132 29.7C370.628 29.012 370.876 28.004 370.876 26.676C370.876 25.348 370.628 24.336 370.132 23.64C369.644 22.944 368.888 22.596 367.864 22.596C366.824 22.596 366.052 22.948 365.548 23.652C365.052 24.348 364.804 25.356 364.804 26.676C364.804 27.996 365.052 29.004 365.548 29.7C366.052 30.388 366.824 30.732 367.864 30.732ZM379.077 15V32.832H376.113V15H379.077ZM393.01 20.52L388.126 32.832H385.438L380.554 20.52H383.002C383.226 20.52 383.41 20.572 383.554 20.676C383.706 20.78 383.806 20.912 383.854 21.072L386.23 27.648C386.358 28.032 386.47 28.408 386.566 28.776C386.662 29.144 386.746 29.512 386.818 29.88C386.898 29.512 386.986 29.144 387.082 28.776C387.178 28.408 387.294 28.032 387.43 27.648L389.854 21.072C389.91 20.912 390.01 20.78 390.154 20.676C390.298 20.572 390.47 20.52 390.67 20.52H393.01ZM402.027 25.26C402.027 24.876 401.971 24.516 401.859 24.18C401.755 23.836 401.595 23.536 401.379 23.28C401.163 23.024 400.887 22.824 400.551 22.68C400.223 22.528 399.839 22.452 399.399 22.452C398.543 22.452 397.867 22.696 397.371 23.184C396.883 23.672 396.571 24.364 396.435 25.26H402.027ZM396.375 27.048C396.423 27.68 396.535 28.228 396.711 28.692C396.887 29.148 397.119 29.528 397.407 29.832C397.695 30.128 398.035 30.352 398.427 30.504C398.827 30.648 399.267 30.72 399.747 30.72C400.227 30.72 400.639 30.664 400.983 30.552C401.335 30.44 401.639 30.316 401.895 30.18C402.159 30.044 402.387 29.92 402.579 29.808C402.779 29.696 402.971 29.64 403.155 29.64C403.403 29.64 403.587 29.732 403.707 29.916L404.559 30.996C404.231 31.38 403.863 31.704 403.455 31.968C403.047 32.224 402.619 32.432 402.171 32.592C401.731 32.744 401.279 32.852 400.815 32.916C400.359 32.98 399.915 33.012 399.483 33.012C398.627 33.012 397.831 32.872 397.095 32.592C396.359 32.304 395.719 31.884 395.175 31.332C394.631 30.772 394.203 30.084 393.891 29.268C393.579 28.444 393.423 27.492 393.423 26.412C393.423 25.572 393.559 24.784 393.831 24.048C394.103 23.304 394.491 22.66 394.995 22.116C395.507 21.564 396.127 21.128 396.855 20.808C397.591 20.488 398.419 20.328 399.339 20.328C400.115 20.328 400.831 20.452 401.487 20.7C402.143 20.948 402.707 21.312 403.179 21.792C403.651 22.264 404.019 22.848 404.283 23.544C404.555 24.232 404.691 25.02 404.691 25.908C404.691 26.356 404.643 26.66 404.547 26.82C404.451 26.972 404.267 27.048 403.995 27.048H396.375ZM414.523 23.664C414.187 23.256 413.819 22.968 413.419 22.8C413.027 22.632 412.603 22.548 412.147 22.548C411.699 22.548 411.295 22.632 410.935 22.8C410.575 22.968 410.267 23.224 410.011 23.568C409.755 23.904 409.559 24.336 409.423 24.864C409.287 25.384 409.219 26 409.219 26.712C409.219 27.432 409.275 28.044 409.387 28.548C409.507 29.044 409.675 29.452 409.891 29.772C410.107 30.084 410.371 30.312 410.683 30.456C410.995 30.592 411.343 30.66 411.727 30.66C412.343 30.66 412.867 30.532 413.299 30.276C413.731 30.02 414.139 29.656 414.523 29.184V23.664ZM417.487 15V32.832H415.675C415.283 32.832 415.035 32.652 414.931 32.292L414.679 31.104C414.183 31.672 413.611 32.132 412.963 32.484C412.323 32.836 411.575 33.012 410.719 33.012C410.047 33.012 409.431 32.872 408.871 32.592C408.311 32.312 407.827 31.908 407.419 31.38C407.019 30.844 406.707 30.184 406.483 29.4C406.267 28.616 406.159 27.72 406.159 26.712C406.159 25.8 406.283 24.952 406.531 24.168C406.779 23.384 407.135 22.704 407.599 22.128C408.063 21.552 408.619 21.104 409.267 20.784C409.915 20.456 410.643 20.292 411.451 20.292C412.139 20.292 412.727 20.4 413.215 20.616C413.703 20.832 414.139 21.124 414.523 21.492V15H417.487ZM437.87 18.132H432.638V32.832H429.41V18.132H424.178V15.48H437.87V18.132ZM442.118 20.328C443.03 20.328 443.858 20.476 444.602 20.772C445.354 21.068 445.994 21.488 446.522 22.032C447.058 22.576 447.47 23.24 447.758 24.024C448.046 24.808 448.19 25.684 448.19 26.652C448.19 27.628 448.046 28.508 447.758 29.292C447.47 30.076 447.058 30.744 446.522 31.296C445.994 31.848 445.354 32.272 444.602 32.568C443.858 32.864 443.03 33.012 442.118 33.012C441.198 33.012 440.362 32.864 439.61 32.568C438.858 32.272 438.214 31.848 437.678 31.296C437.15 30.744 436.738 30.076 436.442 29.292C436.154 28.508 436.01 27.628 436.01 26.652C436.01 25.684 436.154 24.808 436.442 24.024C436.738 23.24 437.15 22.576 437.678 22.032C438.214 21.488 438.858 21.068 439.61 20.772C440.362 20.476 441.198 20.328 442.118 20.328ZM442.118 30.732C443.142 30.732 443.898 30.388 444.386 29.7C444.882 29.012 445.13 28.004 445.13 26.676C445.13 25.348 444.882 24.336 444.386 23.64C443.898 22.944 443.142 22.596 442.118 22.596C441.078 22.596 440.306 22.948 439.802 23.652C439.306 24.348 439.058 25.356 439.058 26.676C439.058 27.996 439.306 29.004 439.802 29.7C440.306 30.388 441.078 30.732 442.118 30.732ZM458.059 23.664C457.723 23.256 457.355 22.968 456.955 22.8C456.563 22.632 456.139 22.548 455.683 22.548C455.235 22.548 454.831 22.632 454.471 22.8C454.111 22.968 453.803 23.224 453.547 23.568C453.291 23.904 453.095 24.336 452.959 24.864C452.823 25.384 452.755 26 452.755 26.712C452.755 27.432 452.811 28.044 452.923 28.548C453.043 29.044 453.211 29.452 453.427 29.772C453.643 30.084 453.907 30.312 454.219 30.456C454.531 30.592 454.879 30.66 455.263 30.66C455.879 30.66 456.403 30.532 456.835 30.276C457.267 30.02 457.675 29.656 458.059 29.184V23.664ZM461.023 15V32.832H459.211C458.819 32.832 458.571 32.652 458.467 32.292L458.215 31.104C457.719 31.672 457.147 32.132 456.499 32.484C455.859 32.836 455.111 33.012 454.255 33.012C453.583 33.012 452.967 32.872 452.407 32.592C451.847 32.312 451.363 31.908 450.955 31.38C450.555 30.844 450.243 30.184 450.019 29.4C449.803 28.616 449.695 27.72 449.695 26.712C449.695 25.8 449.819 24.952 450.067 24.168C450.315 23.384 450.671 22.704 451.135 22.128C451.599 21.552 452.155 21.104 452.803 20.784C453.451 20.456 454.179 20.292 454.987 20.292C455.675 20.292 456.263 20.4 456.751 20.616C457.239 20.832 457.675 21.124 458.059 21.492V15H461.023ZM470.332 27.576C469.476 27.616 468.756 27.692 468.172 27.804C467.588 27.908 467.12 28.044 466.768 28.212C466.416 28.38 466.164 28.576 466.012 28.8C465.86 29.024 465.784 29.268 465.784 29.532C465.784 30.052 465.936 30.424 466.24 30.648C466.552 30.872 466.956 30.984 467.452 30.984C468.06 30.984 468.584 30.876 469.024 30.66C469.472 30.436 469.908 30.1 470.332 29.652V27.576ZM463.54 22.236C464.956 20.94 466.66 20.292 468.652 20.292C469.372 20.292 470.016 20.412 470.584 20.652C471.152 20.884 471.632 21.212 472.024 21.636C472.416 22.052 472.712 22.552 472.912 23.136C473.12 23.72 473.224 24.36 473.224 25.056V32.832H471.88C471.6 32.832 471.384 32.792 471.232 32.712C471.08 32.624 470.96 32.452 470.872 32.196L470.608 31.308C470.296 31.588 469.992 31.836 469.696 32.052C469.4 32.26 469.092 32.436 468.772 32.58C468.452 32.724 468.108 32.832 467.74 32.904C467.38 32.984 466.98 33.024 466.54 33.024C466.02 33.024 465.54 32.956 465.1 32.82C464.66 32.676 464.28 32.464 463.96 32.184C463.64 31.904 463.392 31.556 463.216 31.14C463.04 30.724 462.952 30.24 462.952 29.688C462.952 29.376 463.004 29.068 463.108 28.764C463.212 28.452 463.38 28.156 463.612 27.876C463.852 27.596 464.16 27.332 464.536 27.084C464.912 26.836 465.372 26.62 465.916 26.436C466.468 26.252 467.108 26.104 467.836 25.992C468.564 25.872 469.396 25.8 470.332 25.776V25.056C470.332 24.232 470.156 23.624 469.804 23.232C469.452 22.832 468.944 22.632 468.28 22.632C467.8 22.632 467.4 22.688 467.08 22.8C466.768 22.912 466.492 23.04 466.252 23.184C466.012 23.32 465.792 23.444 465.592 23.556C465.4 23.668 465.184 23.724 464.944 23.724C464.736 23.724 464.56 23.672 464.416 23.568C464.272 23.456 464.156 23.328 464.068 23.184L463.54 22.236ZM486.728 20.52L480.02 36.216C479.932 36.424 479.816 36.58 479.672 36.684C479.536 36.796 479.324 36.852 479.036 36.852H476.828L479.132 31.908L474.152 20.52H476.756C476.988 20.52 477.168 20.576 477.296 20.688C477.432 20.8 477.532 20.928 477.596 21.072L480.212 27.456C480.3 27.672 480.372 27.888 480.428 28.104C480.492 28.32 480.552 28.54 480.608 28.764C480.68 28.54 480.752 28.32 480.824 28.104C480.896 27.88 480.976 27.66 481.064 27.444L483.536 21.072C483.6 20.912 483.704 20.78 483.848 20.676C484 20.572 484.168 20.52 484.352 20.52H486.728Z" fill="url(#paint0_linear_2450_241382)"/>
</g>
<path d="M503.667 20.498H507.667V24.498" stroke="#4CC894" stroke-width="1.33333" stroke-linecap="round" stroke-linejoin="round"/>
<path d="M507.667 20.4993L502 26.166L498.667 22.8327L494.333 27.166" stroke="#4CC894" stroke-width="1.33333" stroke-linecap="round" stroke-linejoin="round"/>
<defs>
<filter id="filter0_d_2450_241382" x="275.792" y="0" width="225.936" height="51.8516" filterUnits="userSpaceOnUse" color-interpolation-filters="sRGB">
<feFlood flood-opacity="0" result="BackgroundImageFix"/>
<feColorMatrix in="SourceAlpha" type="matrix" values="0 0 0 0 0 0 0 0 0 0 0 0 0 0 0 0 0 0 127 0" result="hardAlpha"/>
<feOffset/>
<feGaussianBlur stdDeviation="7.5"/>
<feComposite in2="hardAlpha" operator="out"/>
<feColorMatrix type="matrix" values="0 0 0 0 1 0 0 0 0 1 0 0 0 0 1 0 0 0 0.8 0"/>
<feBlend mode="normal" in2="BackgroundImageFix" result="effect1_dropShadow_2450_241382"/>
<feBlend mode="normal" in="SourceGraphic" in2="effect1_dropShadow_2450_241382" result="shape"/>
</filter>
<linearGradient id="paint0_linear_2450_241382" x1="561.621" y1="16.832" x2="246.777" y2="148.322" gradientUnits="userSpaceOnUse">
<stop offset="0.365385" stop-color="#4CC894"/>
<stop offset="1" stop-color="#256249"/>
</linearGradient>
</defs>
</svg>
