<svg width="749" height="45" viewBox="0 0 749 45" fill="none" xmlns="http://www.w3.org/2000/svg">
<path d="M217.78 25.4087V26.8887H211.38V25.4087H213.724V18.6647C213.724 18.398 213.732 18.1233 213.748 17.8407L212.084 19.2327C211.988 19.3073 211.892 19.3553 211.796 19.3767C211.705 19.3927 211.617 19.3927 211.532 19.3767C211.452 19.3607 211.38 19.334 211.316 19.2967C211.252 19.254 211.204 19.2087 211.172 19.1607L210.548 18.3047L214.076 15.3047H215.7V25.4087H217.78ZM222.877 19.5207L222.477 20.0167C222.701 19.9047 222.941 19.8193 223.197 19.7607C223.459 19.6967 223.739 19.6647 224.037 19.6647C224.475 19.6647 224.899 19.7367 225.309 19.8807C225.725 20.0247 226.091 20.2433 226.405 20.5367C226.72 20.8247 226.973 21.1847 227.165 21.6167C227.357 22.0487 227.453 22.5527 227.453 23.1287C227.453 23.6673 227.355 24.174 227.157 24.6487C226.96 25.118 226.683 25.5287 226.325 25.8807C225.968 26.2327 225.536 26.51 225.029 26.7127C224.528 26.9153 223.973 27.0167 223.365 27.0167C222.747 27.0167 222.192 26.918 221.701 26.7207C221.211 26.5233 220.792 26.2487 220.445 25.8967C220.099 25.5393 219.832 25.1127 219.645 24.6167C219.464 24.1153 219.373 23.5607 219.373 22.9527C219.373 22.4087 219.483 21.8513 219.701 21.2807C219.925 20.7047 220.269 20.1073 220.733 19.4887L223.493 15.7847C223.589 15.6567 223.728 15.5473 223.909 15.4567C224.096 15.366 224.309 15.3207 224.549 15.3207H226.309L222.877 19.5207ZM223.325 25.4007C223.64 25.4007 223.928 25.3473 224.189 25.2407C224.456 25.134 224.683 24.9847 224.869 24.7927C225.061 24.6007 225.211 24.3767 225.317 24.1207C225.424 23.8593 225.477 23.5767 225.477 23.2727C225.477 22.942 225.427 22.646 225.325 22.3847C225.224 22.118 225.08 21.894 224.893 21.7127C224.707 21.526 224.483 21.3847 224.221 21.2887C223.96 21.1927 223.672 21.1447 223.357 21.1447C223.043 21.1447 222.757 21.198 222.501 21.3047C222.245 21.4113 222.027 21.5607 221.845 21.7527C221.664 21.9393 221.523 22.1633 221.421 22.4247C221.32 22.6807 221.269 22.958 221.269 23.2567C221.269 23.5767 221.312 23.87 221.397 24.1367C221.488 24.398 221.619 24.622 221.789 24.8087C221.965 24.9953 222.181 25.142 222.437 25.2487C222.693 25.35 222.989 25.4007 223.325 25.4007ZM236.639 15.3207V16.1767C236.639 16.4327 236.612 16.6407 236.559 16.8007C236.505 16.9553 236.452 17.086 236.399 17.1927L232.015 26.2167C231.924 26.4033 231.796 26.5633 231.631 26.6967C231.465 26.8247 231.244 26.8887 230.967 26.8887H229.535L234.007 18.0487C234.108 17.8673 234.207 17.702 234.303 17.5527C234.404 17.398 234.516 17.2513 234.639 17.1127H229.103C228.98 17.1127 228.873 17.0673 228.783 16.9767C228.692 16.886 228.647 16.7793 228.647 16.6567V15.3207H236.639ZM249.798 17.0887H246.31V26.8887H244.158V17.0887H240.67V15.3207H249.798V17.0887ZM252.63 18.5527C253.238 18.5527 253.79 18.6513 254.286 18.8487C254.787 19.046 255.214 19.326 255.566 19.6887C255.923 20.0513 256.198 20.494 256.39 21.0167C256.582 21.5393 256.678 22.1233 256.678 22.7687C256.678 23.4193 256.582 24.006 256.39 24.5287C256.198 25.0513 255.923 25.4967 255.566 25.8647C255.214 26.2327 254.787 26.5153 254.286 26.7127C253.79 26.91 253.238 27.0087 252.63 27.0087C252.017 27.0087 251.459 26.91 250.958 26.7127C250.457 26.5153 250.027 26.2327 249.67 25.8647C249.318 25.4967 249.043 25.0513 248.846 24.5287C248.654 24.006 248.558 23.4193 248.558 22.7687C248.558 22.1233 248.654 21.5393 248.846 21.0167C249.043 20.494 249.318 20.0513 249.67 19.6887C250.027 19.326 250.457 19.046 250.958 18.8487C251.459 18.6513 252.017 18.5527 252.63 18.5527ZM252.63 25.4887C253.313 25.4887 253.817 25.2593 254.142 24.8007C254.473 24.342 254.638 23.67 254.638 22.7847C254.638 21.8993 254.473 21.2247 254.142 20.7607C253.817 20.2967 253.313 20.0647 252.63 20.0647C251.937 20.0647 251.422 20.2993 251.086 20.7687C250.755 21.2327 250.59 21.9047 250.59 22.7847C250.59 23.6647 250.755 24.3367 251.086 24.8007C251.422 25.2593 251.937 25.4887 252.63 25.4887ZM260.685 27.0167C259.97 27.0167 259.421 26.8167 259.037 26.4167C258.658 26.0113 258.469 25.454 258.469 24.7447V20.1607H257.629C257.522 20.1607 257.432 20.126 257.357 20.0567C257.282 19.9873 257.245 19.8833 257.245 19.7447V18.9607L258.565 18.7447L258.981 16.5047C259.008 16.398 259.058 16.3153 259.133 16.2567C259.208 16.198 259.304 16.1687 259.421 16.1687H260.445V18.7527H262.637V20.1607H260.445V24.6087C260.445 24.8647 260.506 25.0647 260.629 25.2087C260.757 25.3527 260.93 25.4247 261.149 25.4247C261.272 25.4247 261.373 25.4113 261.453 25.3847C261.538 25.3527 261.61 25.3207 261.669 25.2887C261.733 25.2567 261.789 25.2273 261.837 25.2007C261.885 25.1687 261.933 25.1527 261.981 25.1527C262.04 25.1527 262.088 25.1687 262.125 25.2007C262.162 25.2273 262.202 25.27 262.245 25.3287L262.837 26.2887C262.549 26.5287 262.218 26.71 261.845 26.8327C261.472 26.9553 261.085 27.0167 260.685 27.0167ZM268.158 23.3847C267.588 23.4113 267.108 23.462 266.718 23.5367C266.329 23.606 266.017 23.6967 265.782 23.8087C265.548 23.9207 265.38 24.0513 265.278 24.2007C265.177 24.35 265.126 24.5127 265.126 24.6887C265.126 25.0353 265.228 25.2833 265.43 25.4327C265.638 25.582 265.908 25.6567 266.238 25.6567C266.644 25.6567 266.993 25.5847 267.286 25.4407C267.585 25.2913 267.876 25.0673 268.158 24.7687V23.3847ZM263.63 19.8247C264.574 18.9607 265.71 18.5287 267.038 18.5287C267.518 18.5287 267.948 18.6087 268.326 18.7687C268.705 18.9233 269.025 19.142 269.286 19.4247C269.548 19.702 269.745 20.0353 269.878 20.4247C270.017 20.814 270.086 21.2407 270.086 21.7047V26.8887H269.19C269.004 26.8887 268.86 26.862 268.758 26.8087C268.657 26.75 268.577 26.6353 268.518 26.4647L268.342 25.8727C268.134 26.0593 267.932 26.2247 267.734 26.3687C267.537 26.5073 267.332 26.6247 267.118 26.7207C266.905 26.8167 266.676 26.8887 266.43 26.9367C266.19 26.99 265.924 27.0167 265.63 27.0167C265.284 27.0167 264.964 26.9713 264.67 26.8807C264.377 26.7847 264.124 26.6433 263.91 26.4567C263.697 26.27 263.532 26.038 263.414 25.7607C263.297 25.4833 263.238 25.1607 263.238 24.7927C263.238 24.5847 263.273 24.3793 263.342 24.1767C263.412 23.9687 263.524 23.7713 263.678 23.5847C263.838 23.398 264.044 23.222 264.294 23.0567C264.545 22.8913 264.852 22.7473 265.214 22.6247C265.582 22.502 266.009 22.4033 266.494 22.3287C266.98 22.2487 267.534 22.2007 268.158 22.1847V21.7047C268.158 21.1553 268.041 20.75 267.806 20.4887C267.572 20.222 267.233 20.0887 266.79 20.0887C266.47 20.0887 266.204 20.126 265.99 20.2007C265.782 20.2753 265.598 20.3607 265.438 20.4567C265.278 20.5473 265.132 20.63 264.998 20.7047C264.87 20.7793 264.726 20.8167 264.566 20.8167C264.428 20.8167 264.31 20.782 264.214 20.7127C264.118 20.638 264.041 20.5527 263.982 20.4567L263.63 19.8247ZM273.867 15.0007V26.8887H271.891V15.0007H273.867Z" fill="#746F6D"/>
<path d="M292.167 24.2227H296.167V20.2227" stroke="#746F6D" stroke-width="1.33333" stroke-linecap="round" stroke-linejoin="round"/>
<path d="M296.167 24.2214L290.5 18.5547L287.167 21.888L282.833 17.5547" stroke="#746F6D" stroke-width="1.33333" stroke-linecap="round" stroke-linejoin="round"/>
<g filter="url(#filter0_d_2450_241383)">
<path d="M323.364 18.5447C323.444 17.99 323.599 17.5047 323.828 17.0887C324.057 16.6673 324.343 16.318 324.684 16.0407C325.031 15.758 325.425 15.5473 325.868 15.4087C326.316 15.2647 326.796 15.1927 327.308 15.1927C327.841 15.1927 328.321 15.27 328.748 15.4247C329.18 15.574 329.548 15.7847 329.852 16.0567C330.156 16.3233 330.388 16.638 330.548 17.0007C330.713 17.3633 330.796 17.7553 330.796 18.1767C330.796 18.5447 330.753 18.87 330.668 19.1527C330.588 19.43 330.471 19.6727 330.316 19.8807C330.161 20.0887 329.969 20.2647 329.74 20.4087C329.511 20.5527 329.252 20.6727 328.964 20.7687C329.657 20.9873 330.175 21.3207 330.516 21.7687C330.857 22.2167 331.028 22.7793 331.028 23.4567C331.028 24.0327 330.921 24.542 330.708 24.9847C330.495 25.4273 330.207 25.8007 329.844 26.1047C329.481 26.4033 329.06 26.63 328.58 26.7847C328.105 26.9393 327.601 27.0167 327.068 27.0167C326.487 27.0167 325.98 26.95 325.548 26.8167C325.116 26.6833 324.74 26.486 324.42 26.2247C324.1 25.9633 323.828 25.6433 323.604 25.2647C323.38 24.886 323.188 24.4487 323.028 23.9527L323.9 23.5927C324.129 23.4967 324.343 23.4727 324.54 23.5207C324.743 23.5633 324.889 23.67 324.98 23.8407C325.076 24.0273 325.18 24.2113 325.292 24.3927C325.409 24.574 325.548 24.7367 325.708 24.8807C325.868 25.0193 326.055 25.134 326.268 25.2247C326.487 25.31 326.745 25.3527 327.044 25.3527C327.38 25.3527 327.673 25.2993 327.924 25.1927C328.175 25.0807 328.383 24.9367 328.548 24.7607C328.719 24.5847 328.844 24.39 328.924 24.1767C329.009 23.958 329.052 23.7393 329.052 23.5207C329.052 23.2433 329.023 22.9927 328.964 22.7687C328.905 22.5393 328.783 22.3447 328.596 22.1847C328.409 22.0247 328.14 21.8993 327.788 21.8087C327.441 21.718 326.975 21.6727 326.388 21.6727V20.2647C326.873 20.2593 327.276 20.214 327.596 20.1287C327.916 20.0433 328.169 19.926 328.356 19.7767C328.548 19.622 328.681 19.438 328.756 19.2247C328.831 19.0113 328.868 18.7767 328.868 18.5207C328.868 17.9767 328.716 17.5633 328.412 17.2807C328.108 16.998 327.703 16.8567 327.196 16.8567C326.961 16.8567 326.745 16.8913 326.548 16.9607C326.351 17.0247 326.172 17.118 326.012 17.2407C325.857 17.358 325.727 17.4967 325.62 17.6567C325.513 17.8167 325.433 17.9927 325.38 18.1847C325.289 18.43 325.169 18.5927 325.02 18.6727C324.876 18.7527 324.671 18.7713 324.404 18.7287L323.364 18.5447ZM339.549 25.0487C339.763 25.0487 339.931 25.11 340.053 25.2327C340.181 25.35 340.245 25.5073 340.245 25.7047V26.8887H332.309V26.2327C332.309 26.0993 332.336 25.9607 332.389 25.8167C332.448 25.6673 332.539 25.534 332.661 25.4167L336.173 21.8967C336.467 21.598 336.728 21.3127 336.957 21.0407C337.192 20.7687 337.387 20.4993 337.541 20.2327C337.696 19.966 337.813 19.6967 337.893 19.4247C337.979 19.1473 338.021 18.8567 338.021 18.5527C338.021 18.2753 337.981 18.0327 337.901 17.8247C337.821 17.6113 337.707 17.4327 337.557 17.2887C337.413 17.1447 337.237 17.038 337.029 16.9687C336.827 16.894 336.597 16.8567 336.341 16.8567C336.107 16.8567 335.888 16.8913 335.685 16.9607C335.488 17.0247 335.312 17.118 335.157 17.2407C335.003 17.358 334.872 17.4967 334.765 17.6567C334.659 17.8167 334.579 17.9927 334.525 18.1847C334.435 18.43 334.317 18.5927 334.173 18.6727C334.029 18.7527 333.821 18.7713 333.549 18.7287L332.509 18.5447C332.589 17.99 332.744 17.5047 332.973 17.0887C333.203 16.6673 333.488 16.318 333.829 16.0407C334.176 15.758 334.571 15.5473 335.013 15.4087C335.461 15.2647 335.941 15.1927 336.453 15.1927C336.987 15.1927 337.475 15.2727 337.917 15.4327C338.36 15.5873 338.739 15.8087 339.053 16.0967C339.368 16.3847 339.613 16.7313 339.789 17.1367C339.965 17.542 340.053 17.9927 340.053 18.4887C340.053 18.9153 339.989 19.31 339.861 19.6727C339.739 20.0353 339.571 20.382 339.357 20.7127C339.149 21.0433 338.904 21.3633 338.621 21.6727C338.339 21.982 338.043 22.2967 337.733 22.6167L335.125 25.2807C335.376 25.206 335.624 25.15 335.869 25.1127C336.12 25.07 336.357 25.0487 336.581 25.0487H339.549ZM349.497 20.8247C349.902 20.8247 350.254 20.774 350.553 20.6727C350.857 20.5713 351.105 20.4327 351.297 20.2567C351.494 20.0753 351.641 19.862 351.737 19.6167C351.833 19.3713 351.881 19.102 351.881 18.8087C351.881 18.222 351.686 17.7713 351.297 17.4567C350.913 17.142 350.324 16.9847 349.529 16.9847H348.153V20.8247H349.497ZM355.033 26.8887H353.089C352.721 26.8887 352.454 26.7447 352.289 26.4567L349.857 22.7527C349.766 22.614 349.665 22.5153 349.553 22.4567C349.446 22.398 349.286 22.3687 349.073 22.3687H348.153V26.8887H346.001V15.3207H349.529C350.313 15.3207 350.985 15.4033 351.545 15.5687C352.11 15.7287 352.572 15.9553 352.929 16.2487C353.292 16.542 353.558 16.894 353.729 17.3047C353.9 17.71 353.985 18.158 353.985 18.6487C353.985 19.038 353.926 19.406 353.809 19.7527C353.697 20.0993 353.532 20.414 353.313 20.6967C353.1 20.9793 352.833 21.2273 352.513 21.4407C352.198 21.654 351.838 21.822 351.433 21.9447C351.572 22.0247 351.7 22.1207 351.817 22.2327C351.934 22.3393 352.041 22.4673 352.137 22.6167L355.033 26.8887ZM360.647 21.8407C360.647 21.5847 360.61 21.3447 360.535 21.1207C360.466 20.8913 360.359 20.6913 360.215 20.5207C360.071 20.35 359.887 20.2167 359.663 20.1207C359.444 20.0193 359.188 19.9687 358.895 19.9687C358.324 19.9687 357.874 20.1313 357.543 20.4567C357.218 20.782 357.01 21.2433 356.919 21.8407H360.647ZM356.879 23.0327C356.911 23.454 356.986 23.8193 357.103 24.1287C357.22 24.4327 357.375 24.686 357.567 24.8887C357.759 25.086 357.986 25.2353 358.247 25.3367C358.514 25.4327 358.807 25.4807 359.127 25.4807C359.447 25.4807 359.722 25.4433 359.951 25.3687C360.186 25.294 360.388 25.2113 360.559 25.1207C360.735 25.03 360.887 24.9473 361.015 24.8727C361.148 24.798 361.276 24.7607 361.399 24.7607C361.564 24.7607 361.687 24.822 361.767 24.9447L362.335 25.6647C362.116 25.9207 361.871 26.1367 361.599 26.3127C361.327 26.4833 361.042 26.622 360.743 26.7287C360.45 26.83 360.148 26.902 359.839 26.9447C359.535 26.9873 359.239 27.0087 358.951 27.0087C358.38 27.0087 357.85 26.9153 357.359 26.7287C356.868 26.5367 356.442 26.2567 356.079 25.8887C355.716 25.5153 355.431 25.0567 355.223 24.5127C355.015 23.9633 354.911 23.3287 354.911 22.6087C354.911 22.0487 355.002 21.5233 355.183 21.0327C355.364 20.5367 355.623 20.1073 355.959 19.7447C356.3 19.3767 356.714 19.086 357.199 18.8727C357.69 18.6593 358.242 18.5527 358.855 18.5527C359.372 18.5527 359.85 18.6353 360.287 18.8007C360.724 18.966 361.1 19.2087 361.415 19.5287C361.73 19.8433 361.975 20.2327 362.151 20.6967C362.332 21.1553 362.423 21.6807 362.423 22.2727C362.423 22.5713 362.391 22.774 362.327 22.8807C362.263 22.982 362.14 23.0327 361.959 23.0327H356.879ZM368.834 20.2807C368.781 20.366 368.725 20.4273 368.666 20.4647C368.607 20.4967 368.533 20.5127 368.442 20.5127C368.346 20.5127 368.242 20.486 368.13 20.4327C368.023 20.3793 367.898 20.3207 367.754 20.2567C367.61 20.1873 367.445 20.126 367.258 20.0727C367.077 20.0193 366.861 19.9927 366.61 19.9927C366.221 19.9927 365.914 20.0753 365.69 20.2407C365.471 20.406 365.362 20.622 365.362 20.8887C365.362 21.0647 365.418 21.214 365.53 21.3367C365.647 21.454 365.799 21.558 365.986 21.6487C366.178 21.7393 366.394 21.822 366.634 21.8967C366.874 21.966 367.117 22.0433 367.362 22.1287C367.613 22.214 367.858 22.3127 368.098 22.4247C368.338 22.5313 368.551 22.67 368.738 22.8407C368.93 23.006 369.082 23.206 369.194 23.4407C369.311 23.6753 369.37 23.958 369.37 24.2887C369.37 24.6833 369.298 25.0487 369.154 25.3847C369.015 25.7153 368.807 26.0033 368.53 26.2487C368.253 26.4887 367.909 26.678 367.498 26.8167C367.093 26.95 366.623 27.0167 366.09 27.0167C365.807 27.0167 365.53 26.99 365.258 26.9367C364.991 26.8887 364.733 26.8193 364.482 26.7287C364.237 26.638 364.007 26.5313 363.794 26.4087C363.586 26.286 363.402 26.1527 363.242 26.0087L363.698 25.2567C363.757 25.166 363.826 25.0967 363.906 25.0487C363.986 25.0007 364.087 24.9767 364.21 24.9767C364.333 24.9767 364.447 25.0113 364.554 25.0807C364.666 25.15 364.794 25.2247 364.938 25.3047C365.082 25.3847 365.25 25.4593 365.442 25.5287C365.639 25.598 365.887 25.6327 366.186 25.6327C366.421 25.6327 366.621 25.606 366.786 25.5527C366.957 25.494 367.095 25.4193 367.202 25.3287C367.314 25.238 367.394 25.134 367.442 25.0167C367.495 24.894 367.522 24.7687 367.522 24.6407C367.522 24.4487 367.463 24.2913 367.346 24.1687C367.234 24.046 367.082 23.9393 366.89 23.8487C366.703 23.758 366.487 23.678 366.242 23.6087C366.002 23.534 365.754 23.454 365.498 23.3687C365.247 23.2833 364.999 23.1847 364.754 23.0727C364.514 22.9553 364.298 22.8087 364.106 22.6327C363.919 22.4567 363.767 22.2407 363.65 21.9847C363.538 21.7287 363.482 21.4193 363.482 21.0567C363.482 20.7207 363.549 20.4007 363.682 20.0967C363.815 19.7927 364.01 19.5287 364.266 19.3047C364.527 19.0753 364.85 18.894 365.234 18.7607C365.623 18.622 366.071 18.5527 366.578 18.5527C367.143 18.5527 367.658 18.646 368.122 18.8327C368.586 19.0193 368.973 19.2647 369.282 19.5687L368.834 20.2807ZM374.409 18.5527C375.017 18.5527 375.569 18.6513 376.065 18.8487C376.567 19.046 376.993 19.326 377.345 19.6887C377.703 20.0513 377.977 20.494 378.169 21.0167C378.361 21.5393 378.457 22.1233 378.457 22.7687C378.457 23.4193 378.361 24.006 378.169 24.5287C377.977 25.0513 377.703 25.4967 377.345 25.8647C376.993 26.2327 376.567 26.5153 376.065 26.7127C375.569 26.91 375.017 27.0087 374.409 27.0087C373.796 27.0087 373.239 26.91 372.737 26.7127C372.236 26.5153 371.807 26.2327 371.449 25.8647C371.097 25.4967 370.823 25.0513 370.625 24.5287C370.433 24.006 370.337 23.4193 370.337 22.7687C370.337 22.1233 370.433 21.5393 370.625 21.0167C370.823 20.494 371.097 20.0513 371.449 19.6887C371.807 19.326 372.236 19.046 372.737 18.8487C373.239 18.6513 373.796 18.5527 374.409 18.5527ZM374.409 25.4887C375.092 25.4887 375.596 25.2593 375.921 24.8007C376.252 24.342 376.417 23.67 376.417 22.7847C376.417 21.8993 376.252 21.2247 375.921 20.7607C375.596 20.2967 375.092 20.0647 374.409 20.0647C373.716 20.0647 373.201 20.2993 372.865 20.7687C372.535 21.2327 372.369 21.9047 372.369 22.7847C372.369 23.6647 372.535 24.3367 372.865 24.8007C373.201 25.2593 373.716 25.4887 374.409 25.4887ZM381.885 15.0007V26.8887H379.909V15.0007H381.885ZM391.174 18.6807L387.918 26.8887H386.126L382.87 18.6807H384.502C384.651 18.6807 384.774 18.7153 384.87 18.7847C384.971 18.854 385.038 18.942 385.07 19.0487L386.654 23.4327C386.739 23.6887 386.814 23.9393 386.878 24.1847C386.942 24.43 386.998 24.6753 387.046 24.9207C387.099 24.6753 387.158 24.43 387.222 24.1847C387.286 23.9393 387.363 23.6887 387.454 23.4327L389.07 19.0487C389.107 18.942 389.174 18.854 389.27 18.7847C389.366 18.7153 389.48 18.6807 389.614 18.6807H391.174ZM397.185 21.8407C397.185 21.5847 397.147 21.3447 397.073 21.1207C397.003 20.8913 396.897 20.6913 396.753 20.5207C396.609 20.35 396.425 20.2167 396.201 20.1207C395.982 20.0193 395.726 19.9687 395.433 19.9687C394.862 19.9687 394.411 20.1313 394.081 20.4567C393.755 20.782 393.547 21.2433 393.457 21.8407H397.185ZM393.417 23.0327C393.449 23.454 393.523 23.8193 393.641 24.1287C393.758 24.4327 393.913 24.686 394.105 24.8887C394.297 25.086 394.523 25.2353 394.785 25.3367C395.051 25.4327 395.345 25.4807 395.665 25.4807C395.985 25.4807 396.259 25.4433 396.489 25.3687C396.723 25.294 396.926 25.2113 397.097 25.1207C397.273 25.03 397.425 24.9473 397.553 24.8727C397.686 24.798 397.814 24.7607 397.937 24.7607C398.102 24.7607 398.225 24.822 398.305 24.9447L398.873 25.6647C398.654 25.9207 398.409 26.1367 398.137 26.3127C397.865 26.4833 397.579 26.622 397.281 26.7287C396.987 26.83 396.686 26.902 396.377 26.9447C396.073 26.9873 395.777 27.0087 395.489 27.0087C394.918 27.0087 394.387 26.9153 393.897 26.7287C393.406 26.5367 392.979 26.2567 392.617 25.8887C392.254 25.5153 391.969 25.0567 391.761 24.5127C391.553 23.9633 391.449 23.3287 391.449 22.6087C391.449 22.0487 391.539 21.5233 391.721 21.0327C391.902 20.5367 392.161 20.1073 392.497 19.7447C392.838 19.3767 393.251 19.086 393.737 18.8727C394.227 18.6593 394.779 18.5527 395.393 18.5527C395.91 18.5527 396.387 18.6353 396.825 18.8007C397.262 18.966 397.638 19.2087 397.953 19.5287C398.267 19.8433 398.513 20.2327 398.689 20.6967C398.87 21.1553 398.961 21.6807 398.961 22.2727C398.961 22.5713 398.929 22.774 398.865 22.8807C398.801 22.982 398.678 23.0327 398.497 23.0327H393.417ZM405.515 20.7767C405.291 20.5047 405.046 20.3127 404.779 20.2007C404.518 20.0887 404.235 20.0327 403.931 20.0327C403.633 20.0327 403.363 20.0887 403.123 20.2007C402.883 20.3127 402.678 20.4833 402.507 20.7127C402.337 20.9367 402.206 21.2247 402.115 21.5767C402.025 21.9233 401.979 22.334 401.979 22.8087C401.979 23.2887 402.017 23.6967 402.091 24.0327C402.171 24.3633 402.283 24.6353 402.427 24.8487C402.571 25.0567 402.747 25.2087 402.955 25.3047C403.163 25.3953 403.395 25.4407 403.651 25.4407C404.062 25.4407 404.411 25.3553 404.699 25.1847C404.987 25.014 405.259 24.7713 405.515 24.4567V20.7767ZM407.491 15.0007V26.8887H406.283C406.022 26.8887 405.857 26.7687 405.787 26.5287L405.619 25.7367C405.289 26.1153 404.907 26.422 404.475 26.6567C404.049 26.8913 403.55 27.0087 402.979 27.0087C402.531 27.0087 402.121 26.9153 401.747 26.7287C401.374 26.542 401.051 26.2727 400.779 25.9207C400.513 25.5633 400.305 25.1233 400.155 24.6007C400.011 24.078 399.939 23.4807 399.939 22.8087C399.939 22.2007 400.022 21.6353 400.187 21.1127C400.353 20.59 400.59 20.1367 400.899 19.7527C401.209 19.3687 401.579 19.07 402.011 18.8567C402.443 18.638 402.929 18.5287 403.467 18.5287C403.926 18.5287 404.318 18.6007 404.643 18.7447C404.969 18.8887 405.259 19.0833 405.515 19.3287V15.0007H407.491ZM421.08 17.0887H417.592V26.8887H415.44V17.0887H411.952V15.3207H421.08V17.0887ZM423.912 18.5527C424.52 18.5527 425.072 18.6513 425.568 18.8487C426.069 19.046 426.496 19.326 426.848 19.6887C427.205 20.0513 427.48 20.494 427.672 21.0167C427.864 21.5393 427.96 22.1233 427.96 22.7687C427.96 23.4193 427.864 24.006 427.672 24.5287C427.48 25.0513 427.205 25.4967 426.848 25.8647C426.496 26.2327 426.069 26.5153 425.568 26.7127C425.072 26.91 424.52 27.0087 423.912 27.0087C423.298 27.0087 422.741 26.91 422.24 26.7127C421.738 26.5153 421.309 26.2327 420.952 25.8647C420.6 25.4967 420.325 25.0513 420.128 24.5287C419.936 24.006 419.84 23.4193 419.84 22.7687C419.84 22.1233 419.936 21.5393 420.128 21.0167C420.325 20.494 420.6 20.0513 420.952 19.6887C421.309 19.326 421.738 19.046 422.24 18.8487C422.741 18.6513 423.298 18.5527 423.912 18.5527ZM423.912 25.4887C424.594 25.4887 425.098 25.2593 425.424 24.8007C425.754 24.342 425.92 23.67 425.92 22.7847C425.92 21.8993 425.754 21.2247 425.424 20.7607C425.098 20.2967 424.594 20.0647 423.912 20.0647C423.218 20.0647 422.704 20.2993 422.368 20.7687C422.037 21.2327 421.872 21.9047 421.872 22.7847C421.872 23.6647 422.037 24.3367 422.368 24.8007C422.704 25.2593 423.218 25.4887 423.912 25.4887ZM434.539 20.7767C434.315 20.5047 434.07 20.3127 433.803 20.2007C433.542 20.0887 433.259 20.0327 432.955 20.0327C432.657 20.0327 432.387 20.0887 432.147 20.2007C431.907 20.3127 431.702 20.4833 431.531 20.7127C431.361 20.9367 431.23 21.2247 431.139 21.5767C431.049 21.9233 431.003 22.334 431.003 22.8087C431.003 23.2887 431.041 23.6967 431.115 24.0327C431.195 24.3633 431.307 24.6353 431.451 24.8487C431.595 25.0567 431.771 25.2087 431.979 25.3047C432.187 25.3953 432.419 25.4407 432.675 25.4407C433.086 25.4407 433.435 25.3553 433.723 25.1847C434.011 25.014 434.283 24.7713 434.539 24.4567V20.7767ZM436.515 15.0007V26.8887H435.307C435.046 26.8887 434.881 26.7687 434.811 26.5287L434.643 25.7367C434.313 26.1153 433.931 26.422 433.499 26.6567C433.073 26.8913 432.574 27.0087 432.003 27.0087C431.555 27.0087 431.145 26.9153 430.771 26.7287C430.398 26.542 430.075 26.2727 429.803 25.9207C429.537 25.5633 429.329 25.1233 429.179 24.6007C429.035 24.078 428.963 23.4807 428.963 22.8087C428.963 22.2007 429.046 21.6353 429.211 21.1127C429.377 20.59 429.614 20.1367 429.923 19.7527C430.233 19.3687 430.603 19.07 431.035 18.8567C431.467 18.638 431.953 18.5287 432.491 18.5287C432.95 18.5287 433.342 18.6007 433.667 18.7447C433.993 18.8887 434.283 19.0833 434.539 19.3287V15.0007H436.515ZM442.721 23.3847C442.151 23.4113 441.671 23.462 441.281 23.5367C440.892 23.606 440.58 23.6967 440.345 23.8087C440.111 23.9207 439.943 24.0513 439.841 24.2007C439.74 24.35 439.689 24.5127 439.689 24.6887C439.689 25.0353 439.791 25.2833 439.993 25.4327C440.201 25.582 440.471 25.6567 440.801 25.6567C441.207 25.6567 441.556 25.5847 441.849 25.4407C442.148 25.2913 442.439 25.0673 442.721 24.7687V23.3847ZM438.193 19.8247C439.137 18.9607 440.273 18.5287 441.601 18.5287C442.081 18.5287 442.511 18.6087 442.889 18.7687C443.268 18.9233 443.588 19.142 443.849 19.4247C444.111 19.702 444.308 20.0353 444.441 20.4247C444.58 20.814 444.649 21.2407 444.649 21.7047V26.8887H443.753C443.567 26.8887 443.423 26.862 443.321 26.8087C443.22 26.75 443.14 26.6353 443.081 26.4647L442.905 25.8727C442.697 26.0593 442.495 26.2247 442.297 26.3687C442.1 26.5073 441.895 26.6247 441.681 26.7207C441.468 26.8167 441.239 26.8887 440.993 26.9367C440.753 26.99 440.487 27.0167 440.193 27.0167C439.847 27.0167 439.527 26.9713 439.233 26.8807C438.94 26.7847 438.687 26.6433 438.473 26.4567C438.26 26.27 438.095 26.038 437.977 25.7607C437.86 25.4833 437.801 25.1607 437.801 24.7927C437.801 24.5847 437.836 24.3793 437.905 24.1767C437.975 23.9687 438.087 23.7713 438.241 23.5847C438.401 23.398 438.607 23.222 438.857 23.0567C439.108 22.8913 439.415 22.7473 439.777 22.6247C440.145 22.502 440.572 22.4033 441.057 22.3287C441.543 22.2487 442.097 22.2007 442.721 22.1847V21.7047C442.721 21.1553 442.604 20.75 442.369 20.4887C442.135 20.222 441.796 20.0887 441.353 20.0887C441.033 20.0887 440.767 20.126 440.553 20.2007C440.345 20.2753 440.161 20.3607 440.001 20.4567C439.841 20.5473 439.695 20.63 439.561 20.7047C439.433 20.7793 439.289 20.8167 439.129 20.8167C438.991 20.8167 438.873 20.782 438.777 20.7127C438.681 20.638 438.604 20.5527 438.545 20.4567L438.193 19.8247ZM453.652 18.6807L449.18 29.1447C449.121 29.2833 449.044 29.3873 448.948 29.4567C448.857 29.5313 448.716 29.5687 448.524 29.5687H447.052L448.588 26.2727L445.268 18.6807H447.004C447.159 18.6807 447.279 18.718 447.364 18.7927C447.455 18.8673 447.521 18.9527 447.564 19.0487L449.308 23.3047C449.367 23.4487 449.415 23.5927 449.452 23.7367C449.495 23.8807 449.535 24.0273 449.572 24.1767C449.62 24.0273 449.668 23.8807 449.716 23.7367C449.764 23.5873 449.817 23.4407 449.876 23.2967L451.524 19.0487C451.567 18.942 451.636 18.854 451.732 18.7847C451.833 18.7153 451.945 18.6807 452.068 18.6807H453.652Z" fill="url(#paint0_linear_2450_241383)"/>
</g>
<path d="M471.167 17.5547H475.167V21.5547" stroke="#4CC894" stroke-width="1.33333" stroke-linecap="round" stroke-linejoin="round"/>
<path d="M475.167 17.556L469.5 23.2227L466.167 19.8893L461.833 24.2227" stroke="#4CC894" stroke-width="1.33333" stroke-linecap="round" stroke-linejoin="round"/>
<defs>
<filter id="filter0_d_2450_241383" x="308.028" y="0" width="160.624" height="44.5684" filterUnits="userSpaceOnUse" color-interpolation-filters="sRGB">
<feFlood flood-opacity="0" result="BackgroundImageFix"/>
<feColorMatrix in="SourceAlpha" type="matrix" values="0 0 0 0 0 0 0 0 0 0 0 0 0 0 0 0 0 0 127 0" result="hardAlpha"/>
<feOffset/>
<feGaussianBlur stdDeviation="7.5"/>
<feComposite in2="hardAlpha" operator="out"/>
<feColorMatrix type="matrix" values="0 0 0 0 1 0 0 0 0 1 0 0 0 0 1 0 0 0 0.8 0"/>
<feBlend mode="normal" in2="BackgroundImageFix" result="effect1_dropShadow_2450_241383"/>
<feBlend mode="normal" in="SourceGraphic" in2="effect1_dropShadow_2450_241383" result="shape"/>
</filter>
<linearGradient id="paint0_linear_2450_241383" x1="504.5" y1="13.8887" x2="274.735" y2="78.185" gradientUnits="userSpaceOnUse">
<stop offset="0.365385" stop-color="#4CC894"/>
<stop offset="1" stop-color="#256249"/>
</linearGradient>
</defs>
</svg>
